<svg width="48" height="48" viewBox="0 0 48 48" fill="none" xmlns="http://www.w3.org/2000/svg">
<path d="M32.9304 25.6744H15.0699C14.1546 25.6744 13.3955 24.9153 13.3955 24C13.3955 23.0846 14.1546 22.3256 15.0699 22.3256H32.9304C33.8457 22.3256 34.6048 23.0846 34.6048 24C34.6048 24.9153 33.8457 25.6744 32.9304 25.6744Z" fill="white"/>
<path d="M24.0001 34.6047C23.0848 34.6047 22.3257 33.8456 22.3257 32.9303V15.0698C22.3257 14.1545 23.0848 13.3954 24.0001 13.3954C24.9155 13.3954 25.6745 14.1545 25.6745 15.0698V32.9303C25.6745 33.8456 24.9155 34.6047 24.0001 34.6047Z" fill="white"/>
<path d="M30.6977 48H17.3023C5.17954 48 0 42.8205 0 30.6977V17.3023C0 5.17954 5.17954 0 17.3023 0H30.6977C42.8205 0 48 5.17954 48 17.3023V30.6977C48 42.8205 42.8205 48 30.6977 48ZM17.3023 3.34884C7.01023 3.34884 3.34884 7.01023 3.34884 17.3023V30.6977C3.34884 40.9898 7.01023 44.6512 17.3023 44.6512H30.6977C40.9898 44.6512 44.6512 40.9898 44.6512 30.6977V17.3023C44.6512 7.01023 40.9898 3.34884 30.6977 3.34884H17.3023Z" fill="white"/>
</svg>
