<svg width="48" height="48" viewBox="0 0 48 48" fill="none" xmlns="http://www.w3.org/2000/svg">
<path d="M34.073 0H13.951C5.2106 0 0 5.208 0 13.944V34.032C0 42.792 5.2106 48 13.951 48H34.049C42.7893 48 47.9999 42.792 47.9999 34.056V13.944C48.0239 5.208 42.8133 0 34.073 0ZM21.4907 37.224C20.7944 37.92 19.4737 38.592 18.5132 38.736L12.6063 39.576C12.3902 39.6 12.1741 39.624 11.958 39.624C10.9735 39.624 10.061 39.288 9.41269 38.64C8.6203 37.848 8.28413 36.696 8.47622 35.424L9.31664 29.52C9.46071 28.536 10.109 27.24 10.8294 26.544L21.5387 15.84C21.7308 16.344 21.9229 16.848 22.1871 17.424C22.4272 17.928 22.6913 18.456 22.9795 18.936C23.2196 19.344 23.4837 19.728 23.6998 20.016C23.9639 20.424 24.2761 20.808 24.4682 21.024C24.5883 21.192 24.6843 21.312 24.7323 21.36C25.3326 22.08 26.029 22.752 26.6293 23.256C26.7974 23.424 26.8934 23.52 26.9414 23.544C27.3016 23.832 27.6618 24.12 27.9739 24.336C28.3581 24.624 28.7423 24.888 29.1505 25.104C29.6308 25.392 30.159 25.656 30.6873 25.92C31.2396 26.16 31.7438 26.376 32.2481 26.544L21.4907 37.224ZM36.9064 21.816L34.6973 24.048C34.5532 24.192 34.3611 24.264 34.169 24.264C34.097 24.264 34.0009 24.264 33.9529 24.24C29.0785 22.848 25.1886 18.96 23.7959 14.088C23.7238 13.824 23.7959 13.536 23.988 13.368L26.2211 11.136C29.8709 7.488 33.3526 7.56 36.9304 11.136C38.7553 12.96 39.6438 14.712 39.6438 16.536C39.6197 18.264 38.7313 19.992 36.9064 21.816Z" fill="#61A146"/>
</svg>
