<svg width="48" height="48" viewBox="0 0 48 48" fill="none" xmlns="http://www.w3.org/2000/svg">
<path d="M36.5061 48H11.5016C7.43835 48 3.73237 44.8204 3.06261 40.7324L0.0933137 22.6544C-0.375519 19.8382 0.964025 16.2272 3.17423 14.433L18.6457 1.82827C21.6374 -0.624527 26.3478 -0.601793 29.3618 1.851L44.8335 14.433C47.0213 16.2272 48.3609 19.8382 47.9143 22.6544L44.9451 40.7324C44.2753 44.7523 40.5023 48 36.5061 48ZM23.9816 3.4408C22.7983 3.4408 21.6149 3.80411 20.7442 4.50816L5.27282 17.1129C4.00027 18.1576 3.12961 20.4742 3.39751 22.1094L6.36678 40.1874C6.76864 42.572 9.11276 44.5933 11.5016 44.5933H36.5061C38.8949 44.5933 41.2388 42.572 41.6407 40.1647L44.61 22.0866C44.8779 20.4514 43.9851 18.1122 42.7349 17.0902L27.2634 4.50816C26.3704 3.80411 25.1871 3.4408 23.9816 3.4408Z" fill="white"/>
<path d="M24.0043 33.6691C20.008 33.6691 16.7485 30.3532 16.7485 26.288C16.7485 22.2227 20.008 18.9069 24.0043 18.9069C28.0005 18.9069 31.26 22.2227 31.26 26.288C31.26 30.3532 28.0005 33.6691 24.0043 33.6691ZM24.0043 22.3135C21.861 22.3135 20.0973 24.1077 20.0973 26.288C20.0973 28.4682 21.861 30.2624 24.0043 30.2624C26.1475 30.2624 27.9112 28.4682 27.9112 26.288C27.9112 24.1077 26.1475 22.3135 24.0043 22.3135Z" fill="white"/>
</svg>
