<svg width="48" height="48" viewBox="0 0 48 48" fill="none" xmlns="http://www.w3.org/2000/svg">
<path d="M47.5311 39.644L47.5311 8.3517C47.5311 1.94286 41.5961 -2.07902 36.8592 1.12541L25.2958 8.94027L13.7322 16.7878C8.99538 19.9923 8.99538 28.0033 13.7322 31.2078L25.2958 39.0554L36.8592 46.8703C41.5961 50.0747 47.5311 46.0855 47.5311 39.644Z" fill="#2D52D7"/>
<path d="M2.08977 1.35199C3.23219 1.35199 4.17956 2.46373 4.17956 3.80436L4.17957 44.2193C4.17957 45.5599 3.23219 46.6716 2.08977 46.6716C0.947351 46.6716 -2.25085e-05 45.5599 -2.26257e-05 44.2193L-2.61589e-05 3.80436C-2.62761e-05 2.46373 0.919483 1.35199 2.08977 1.35199Z" fill="#2D52D7"/>
</svg>
