<svg width="48" height="48" viewBox="0 0 48 48" fill="none" xmlns="http://www.w3.org/2000/svg">
<path d="M35.5379 0H29.2948C21.611 0 16.8086 4.8 16.8086 12.48V22.2H27.4699L22.4994 17.232C22.1392 16.872 21.9712 16.416 21.9712 15.96C21.9712 15.504 22.1392 15.048 22.4994 14.688C23.1958 13.992 24.3484 13.992 25.0447 14.688L33.0887 22.728C33.7851 23.424 33.7851 24.576 33.0887 25.272L25.0447 33.312C24.3484 34.008 23.1958 34.008 22.4994 33.312C21.8031 32.616 21.8031 31.464 22.4994 30.768L27.4699 25.8H16.8086V35.52C16.8086 43.2 21.611 48 29.2948 48H35.5139C43.1977 48 48.0001 43.2 48.0001 35.52V12.48C48.0241 4.8 43.2218 0 35.5379 0Z" fill="white"/>
<path d="M1.8009 22.2C0.816407 22.2 0 23.016 0 24C0 24.984 0.816407 25.8 1.8009 25.8H16.8084V22.2H1.8009Z" fill="white"/>
</svg>
