<svg width="48" height="48" viewBox="0 0 48 48" fill="none" xmlns="http://www.w3.org/2000/svg">
<path d="M35.5352 0H29.2909C21.6056 0 16.8022 4.8 16.8022 12.48V22.2H31.8127C32.7973 22.2 33.6139 23.016 33.6139 24C33.6139 24.984 32.7973 25.8 31.8127 25.8H16.8022V35.52C16.8022 43.2 21.6056 48 29.2909 48H35.5112C43.1966 48 47.9999 43.2 47.9999 35.52V12.48C48.0239 4.8 43.2206 0 35.5352 0Z" fill="white"/>
<path d="M6.14226 22.1996L11.1137 17.2317C11.474 16.8717 11.6421 16.4157 11.6421 15.9597C11.6421 15.5037 11.474 15.0236 11.1137 14.6876C10.4172 13.9916 9.26443 13.9916 8.56794 14.6876L0.522362 22.7276C-0.174121 23.4236 -0.174121 24.5756 0.522362 25.2716L8.56794 33.3116C9.26443 34.0076 10.4172 34.0076 11.1137 33.3116C11.8102 32.6156 11.8102 31.4636 11.1137 30.7676L6.14226 25.7996H16.8057V22.1996H6.14226Z" fill="white"/>
</svg>
