<?xml version="1.0" encoding="UTF-8"?>
<svg id="Capa_2" data-name="Capa 2" xmlns="http://www.w3.org/2000/svg" viewBox="0 0 135.43 75.51">
  <defs>
    <style>
      .cls-1 {
        isolation: isolate;
      }

      .cls-2 {
        fill: none;
        stroke: #010101;
        stroke-linejoin: round;
      }

      .cls-3 {
        fill: #010101;
      }
    </style>
  </defs>
  <g id="Capa_1-2" data-name="Capa 1">
    <g>
      <g class="cls-1">
        <path class="cls-3" d="M40.03,27.8c.72,.13,1.14,.79,.96,1.47l-1.52,5.53c-.19,.68-.92,1.14-1.64,1.01l-5.67-1-1.49,5.42c-.19,.68-.92,1.14-1.64,1.01l-5.78-1.02c-.72-.13-1.14-.79-.96-1.47l1.49-5.42-5.67-1c-.72-.13-1.14-.79-.96-1.47l1.52-5.53c.19-.68,.92-1.14,1.64-1.01l5.67,1,1.49-5.42c.19-.68,.92-1.14,1.64-1.01l5.78,1.02c.72,.13,1.14,.79,.96,1.47l-1.49,5.42,5.67,1Zm-1.66,6.81l1.52-5.53c.03-.11-.04-.21-.15-.23l-6.76-1.19,1.78-6.47c.03-.11-.04-.21-.15-.23l-5.78-1.02c-.11-.02-.22,.05-.25,.16l-1.78,6.47-6.76-1.19c-.11-.02-.22,.05-.25,.16l-1.52,5.53c-.03,.11,.04,.21,.15,.23l6.76,1.19-1.78,6.47c-.03,.11,.04,.21,.15,.23l5.78,1.02c.11,.02,.22-.05,.25-.16l1.78-6.47,6.76,1.19c.11,.02,.22-.05,.25-.16"/>
        <path class="cls-3" d="M107.43,29.76c2.56,.45,4.1,2.82,3.43,5.27s-3.31,4.08-5.88,3.63-4.1-2.82-3.43-5.27,3.31-4.08,5.88-3.63Zm-2.16,7.85c1.96,.35,3.97-.9,4.49-2.77s-.66-3.68-2.62-4.03-3.97,.9-4.49,2.77,.66,3.68,2.62,4.03"/>
        <path class="cls-3" d="M128.83,38.08c.48,3.12,.29,6.3-.58,9.47s-2.36,6.12-4.44,8.79c-2,2.57-4.46,4.77-7.3,6.53-2.84,1.76-5.93,2.98-9.17,3.65-3.36,.69-6.74,.74-10.05,.16s-6.35-1.77-9.03-3.53c-2.59-1.7-4.75-3.85-6.41-6.4-1.66-2.55-2.74-5.37-3.2-8.38-.48-3.12-.29-6.3,.58-9.47s2.36-6.12,4.44-8.79c2-2.57,4.46-4.77,7.3-6.53,2.84-1.76,5.93-2.98,9.17-3.65,3.36-.69,6.74-.74,10.05-.16s6.35,1.77,9.03,3.53c2.59,1.7,4.75,3.85,6.41,6.4s2.74,5.37,3.2,8.38Zm-31.25,27.54c12.91,2.28,26.17-5.92,29.57-18.27s-4.34-24.25-17.25-26.52-26.18,5.92-29.57,18.27c-3.4,12.35,4.34,24.25,17.25,26.53"/>
        <path class="cls-3" d="M44.82,26.88c.3,1.94,.18,3.93-.36,5.9s-1.47,3.82-2.77,5.48c-1.25,1.61-2.78,2.97-4.55,4.07s-3.7,1.86-5.72,2.28c-2.09,.43-4.2,.46-6.27,.1s-3.96-1.1-5.63-2.2c-1.62-1.06-2.96-2.4-4-3.99-1.03-1.59-1.71-3.35-2-5.22-.3-1.94-.18-3.93,.36-5.9s1.47-3.82,2.77-5.48c1.25-1.61,2.78-2.97,4.55-4.07,1.77-1.1,3.7-1.86,5.72-2.28,2.09-.43,4.2-.46,6.27-.1s3.96,1.1,5.63,2.2c1.62,1.06,2.96,2.4,4,3.99s1.71,3.35,2,5.22Zm-19.38,16.78c7.82,1.38,15.86-3.59,17.92-11.07s-2.63-14.69-10.45-16.07-15.86,3.59-17.92,11.07,2.63,14.69,10.45,16.07"/>
        <path class="cls-3" d="M117.33,41.03c2.56,.45,4.1,2.82,3.43,5.27s-3.31,4.08-5.88,3.63-4.1-2.82-3.43-5.27,3.31-4.08,5.88-3.63Zm-2.16,7.85c1.96,.35,3.97-.9,4.49-2.77s-.66-3.68-2.62-4.03-3.97,.9-4.49,2.77,.66,3.68,2.62,4.03"/>
        <path class="cls-3" d="M102.69,47.88c2.56,.45,4.1,2.82,3.43,5.27s-3.31,4.08-5.88,3.63-4.1-2.82-3.43-5.27,3.31-4.08,5.88-3.63Zm-2.16,7.85c1.96,.35,3.97-.9,4.49-2.77s-.66-3.68-2.62-4.03-3.97,.9-4.49,2.77,.66,3.68,2.62,4.03"/>
        <path class="cls-3" d="M123.25,43.21l-.83-1.79c-.64-1.38-1.83-2.4-3.35-2.88-.26-.08-.52-.14-.78-.19-1.31-.23-2.68-.04-3.95,.54l-16.72,7.76c-3.14,1.46-4.62,4.96-3.3,7.81l.83,1.79c.77,1.67,2.33,2.75,4.13,3.07,1.27,.22,2.65,.06,3.95-.54l16.72-7.76c1.52-.71,2.7-1.91,3.33-3.38,.62-1.48,.62-3.05-.02-4.43Zm-1.03,4.1c-.51,1.2-1.47,2.18-2.71,2.76l-16.72,7.76c-1.06,.49-2.19,.62-3.22,.44-1.46-.26-2.74-1.14-3.37-2.5l-.83-1.79c-1.07-2.33,.14-5.19,2.7-6.38l16.72-7.76c1.03-.48,2.16-.63,3.22-.44,.21,.04,.43,.09,.63,.15,1.25,.39,2.22,1.23,2.74,2.35l.83,1.79c.52,1.13,.53,2.41,.02,3.62"/>
        <path class="cls-3" d="M113.37,36.37c.62-1.48,.62-3.05-.02-4.43l-.83-1.79c-.64-1.38-1.83-2.4-3.35-2.88-.26-.08-.52-.14-.78-.19-1.31-.23-2.68-.04-3.95,.54l-16.72,7.76c-3.14,1.46-4.62,4.96-3.3,7.81l.83,1.79c.64,1.38,1.83,2.4,3.36,2.88,.25,.08,.51,.14,.78,.19,1.31,.23,2.68,.04,3.95-.54l16.72-7.76c1.52-.71,2.7-1.91,3.33-3.38Zm-20.48,10.19c-1.03,.48-2.16,.63-3.22,.44-.21-.04-.43-.09-.63-.15-1.25-.39-2.22-1.23-2.74-2.35l-.83-1.79c-1.07-2.33,.14-5.19,2.7-6.38l16.72-7.76c1.03-.48,2.16-.63,3.22-.44,.21,.04,.43,.09,.63,.15,1.25,.39,2.22,1.23,2.74,2.35l.83,1.79c.52,1.13,.53,2.41,.02,3.62-.51,1.2-1.47,2.18-2.71,2.76l-16.72,7.76"/>
        <path class="cls-3" d="M96.22,41.88c.67-2.45-.86-4.82-3.43-5.27s-5.2,1.18-5.88,3.63c-.67,2.45,.86,4.82,3.43,5.27,2.56,.45,5.2-1.18,5.88-3.63Zm-5.59,2.58c-1.96-.35-3.13-2.15-2.62-4.03s2.53-3.12,4.49-2.77,3.14,2.15,2.62,4.03-2.53,3.12-4.49,2.77"/>
        <path class="cls-3" d="M56.93,34.58l-6.98,5.01c-.54,.39-.67,1.15-.28,1.69h0c.39,.54,1.15,.67,1.69,.28l6.98-5.01c.54-.39,.67-1.15,.28-1.69h0c-.39-.54-1.15-.67-1.69-.28Z"/>
        <path class="cls-3" d="M71.41,37.76l-6.98,5.01c-.54,.39-.67,1.15-.28,1.69h0c.39,.54,1.15,.67,1.69,.28l6.98-5.01c.54-.39,.67-1.15,.28-1.69h0c-.39-.54-1.15-.67-1.69-.28Z"/>
      </g>
      <g>
        <path class="cls-2" d="M51.11,3.52c1,.18,.82,.94,.81,.98l.02,1.57-15.77-2.15c-.36-.08-.73-.16-1.09-.22-3.72-.66-7.73-.39-12.03,.84-.37,.11-.74,.22-1.12,.34l.59-2.16,.26-.93c.35-.1,6.91-2.04,13.11-.95s14.23,2.51,15.22,2.68Z"/>
        <path class="cls-2" d="M123.67,22.65c7.43,6.16,10.77,15.78,8.05,25.68-4,14.53-19.55,24.13-34.73,21.45-7.05-1.24-12.78-4.91-16.49-9.94l-38.62-6.81c-6.01,3.31-13.14,4.71-20.18,3.47C6.52,53.84-2.55,39.89,1.44,25.36,4.17,15.47,12.25,7.85,21.93,4.85c.37-.1,.74-.22,1.12-.32,4.21-1.14,8.68-1.4,13.12-.62l75.29,13.28c2.79,.62,5.25,1.41,7.35,2.37,1.76,.86,3.39,1.9,4.86,3.09Z"/>
        <path class="cls-2" d="M41.88,53.04c-6.01,3.31-13.14,4.71-20.18,3.47-8.79-1.55-15.54-6.88-18.88-13.91l2.27,4.77c3.34,7.03,10.08,12.36,18.88,13.91,7.05,1.24,14.17-.16,20.18-3.47l-2.27-4.77Z"/>
        <path class="cls-2" d="M116.77,15.34c6.2,1.09,11.14,5.06,11.4,5.27l-.26,.93-.59,2.14c-.07-.05-.15-.11-.22-.18-1.31-1.18-2.94-2.21-4.86-3.09-2.1-.96-4.56-1.75-7.35-2.37l-15.44-3.35,.84-1.41s.25-.79,1.25-.61,9.02,1.59,15.22,2.68Z"/>
        <polygon class="cls-2" points="80.5 59.85 41.88 53.04 44.15 57.82 82.77 64.63 80.5 59.85"/>
        <path class="cls-2" d="M132.61,35.94l-2.27-4.77c2.44,5.13,3.05,11.1,1.38,17.17-4,14.53-19.55,24.13-34.73,21.45-7.05-1.24-12.78-4.91-16.49-9.94l2.27,4.77c3.72,5.03,9.45,8.7,16.49,9.94,15.18,2.68,30.73-6.93,34.73-21.45,1.67-6.07,1.06-12.04-1.38-17.17Z"/>
      </g>
    </g>
  </g>
</svg>