<svg width="48" height="48" viewBox="0 0 48 48" fill="none" xmlns="http://www.w3.org/2000/svg">
<path d="M34.073 0H13.951C5.2106 0 0 5.208 0 13.944V34.032C0 42.792 5.2106 48 13.951 48H34.049C42.7893 48 47.9999 42.792 47.9999 34.056V13.944C48.0239 5.208 42.8133 0 34.073 0ZM32.08 29.52C32.7763 30.216 32.7763 31.368 32.08 32.064C31.7198 32.424 31.2636 32.592 30.8074 32.592C30.3511 32.592 29.8949 32.424 29.5347 32.064L24.012 26.544L18.4892 32.064C18.129 32.424 17.6728 32.592 17.2166 32.592C16.7604 32.592 16.3041 32.424 15.9439 32.064C15.2476 31.368 15.2476 30.216 15.9439 29.52L21.4667 24L15.9439 18.48C15.2476 17.784 15.2476 16.632 15.9439 15.936C16.6403 15.24 17.7929 15.24 18.4892 15.936L24.012 21.456L29.5347 15.936C30.2311 15.24 31.3836 15.24 32.08 15.936C32.7763 16.632 32.7763 17.784 32.08 18.48L26.5572 24L32.08 29.52Z" fill="#61A146"/>
</svg>
